<svg xmlns="http://www.w3.org/2000/svg" xml:space="preserve" width="550.527" height="127.917"><path d="M151.597 402.756h99.57a31.75 31.75 45 0 1 31.75 31.75v99.57a31.75 31.75 135 0 1-31.75 31.75h-99.57a31.75 31.75 45 0 1-31.75-31.75v-99.57a31.75 31.75 135 0 1 31.75-31.75z" style="fill:#f60;stroke-width:1.02803;stroke-dasharray:none" transform="matrix(.78063 0 0 .78063 -93.556 -314.344)"/><path d="m174.873 557.658.073-7.545 10.264-5.94c5.645-3.267 10.457-5.997 10.693-6.066.237-.07 5.167 2.6 10.958 5.933l10.527 6.059.074 7.551.073 7.552h14.416v-23.448l-10.54-6.088c-5.798-3.348-10.538-6.155-10.534-6.237.005-.082 4.748-2.877 10.541-6.21l10.533-6.061v-49.619l-.624.328c-.55.29-13.173 7.552-29.696 17.085l-5.493 3.17-5.048-2.909c-2.776-1.6-10.79-6.226-17.808-10.281l-12.76-7.372-.072 14.402c-.04 7.922-.04 20.95 0 28.95l.072 14.547 7.073-4.123 7.074-4.124.139-12.319.138-12.319 10.541 6.073c5.798 3.34 10.613 6.075 10.701 6.078.146.004 18.323-10.396 20.437-11.693l.902-.553v16.273l-22.123 12.738a34390.49 34390.49 0 0 0-28.571 16.466l-6.45 3.727v23.519H174.8z" style="fill:#fff;stroke-width:.277396" transform="translate(-131.152 -452.683)"/><path d="M513.92 579.196c-22.138-6.079-36.608-24.252-36.608-45.978 0-21.897 14.641-40.243 36.644-45.916 9.004-2.322 25.43-2.114 33.65.425 12.737 3.934 25.29 15.077 24.52 21.764-.27 2.341-1.729 3.464-10.314 7.939-5.5 2.866-10.765 5.229-11.7 5.25-.934.02-2.882-1.515-4.33-3.412-7.375-9.67-23.543-9.884-30.761-.41-6.567 8.621-5.576 24.247 1.971 31.072 8 7.234 21.425 5.969 28.563-2.691 1.596-1.937 3.657-3.504 4.58-3.483.922.02 6.177 2.383 11.677 5.25 11.635 6.064 12.706 8.024 7.936 14.523-5.71 7.779-13.71 12.983-24.13 15.697-7.09 1.847-24.924 1.83-31.698-.03zm-222.608-.457c-1.302-.822-1.536-8.96-1.773-61.462-.268-59.592-.242-60.545 1.75-62.537 1.972-1.971 3.184-2.022 48.023-2.022 55.023 0 50-1.438 50 14.309 0 7.32-.411 10.871-1.418 12.25-1.336 1.827-3.194 1.97-31.75 2.44l-30.332.5-.28 12.75-.28 12.75 24.78.075c26.416.08 29.253.284 30.471 2.201.428.674.785 6.255.794 12.403.012 8.844-.313 11.507-1.557 12.75-1.349 1.35-5.307 1.572-28 1.572h-26.428v20.3c0 14.455-.346 20.645-1.2 21.5-1.468 1.468-30.517 1.664-32.8.221zm105.557-1.244c-1.367-1.95-1.557-9.446-1.557-61.277s.19-59.327 1.557-61.278c1.48-2.113 2.231-2.222 15.3-2.222 9.355 0 14.126.383 14.943 1.2 1.733 1.733 1.733 122.866 0 124.6-.817.817-5.588 1.2-14.943 1.2-13.069 0-13.82-.11-15.3-2.223zm42.443 1.245c-2.318-1.464-2.798-78.156-.511-81.646 1.514-2.311 1.933-2.376 15.334-2.376 9.382 0 14.16.383 14.977 1.2 1.724 1.724 1.724 80.876 0 82.6-1.465 1.465-27.525 1.659-29.8.222zm141.035-.957c-.68-1.271-1.035-22.485-1.035-61.928 0-53.207.178-60.172 1.571-61.566 1.271-1.27 4.112-1.571 14.845-1.571 11.59 0 13.484.232 14.929 1.828 1.463 1.617 1.655 5.335 1.655 32.084 0 18.126.37 30.12.926 29.921.509-.183 7.69-6.981 15.96-15.107l15.034-14.774 17.29.274c16.837.267 17.29.329 17.29 2.384 0 1.364-5.83 8.205-16.5 19.36-9.075 9.486-16.5 17.627-16.5 18.089 0 .462 7.91 10.875 17.577 23.14 9.667 12.265 17.845 23.037 18.174 23.936.329.9-.069 2.587-.883 3.75-1.403 2.002-2.327 2.115-17.397 2.115h-15.915l-7.278-8.875c-4.003-4.88-9.91-12.131-13.125-16.113l-5.847-7.238-4.403 4.32-4.403 4.322v9.57c0 14.196.221 14.014-17.022 14.014-12.727 0-13.996-.165-14.943-1.935zm-131.912-90.02c-7.686-1.922-12.323-7.66-12.926-15.994-.832-11.51 6.533-19.051 18.606-19.051 8.001 0 13.77 3.075 16.98 9.052 4.278 7.969 1.408 19.195-6.095 23.831-3.756 2.322-11.755 3.366-16.565 2.162z" style="fill:#fff" transform="translate(-131.152 -452.683)"/></svg>